<?xml version="1.0" encoding="UTF-8" standalone="no"?>
<svg xmlns:svg="http://www.w3.org/2000/svg" xmlns="http://www.w3.org/2000/svg" version="1.0" width="900" height="600">
<rect width="900" height="600" x="0" y="0" style="fill:#de0000" />
<path d="M477,112 C541,181 568,209 576,288 578,314 565,343 543,366 L402,231 451,188 380,168 297,250 341,294 376,257 509,391 C464,415 403,417 350,365 L349,364 264,445 C302,482 264,445 303,483 314,468 375,409 375,410 L374,409 C372,406 370,404 368,402 L374,409 C 429,468 502,471 554,436 L604,487 637,456 586,407 C 607,380 621,345 621,303 C 617,239 570,175 477,112 z" style="fill:#ffffff;fill-opacity:1;" />
</svg>
